<svg xmlns="http://www.w3.org/2000/svg" viewBox="0 0 800 800" role="img" aria-label="Photo placeholder: rooftops, late june">
  <defs>
    <linearGradient id="g2" x1="0" y1="0" x2="0" y2="1">
      <stop offset="0%" stop-color="#dfe9d6"/><stop offset="100%" stop-color="#9fb98a"/>
    </linearGradient>
    <filter id="w2"><feTurbulence type="fractalNoise" baseFrequency="0.85" numOctaves="3" seed="2"/>
      <feDisplacementMap in="SourceGraphic" scale="8"/></filter>
  </defs>
  <rect width="800" height="800" fill="url(#g2)"/>
  <circle cx="300" cy="146" r="58" fill="#eef3e4" opacity=".85"/>
  <path filter="url(#w2)" fill="#9fb98a" d="M0 430c120-46 210 22 330-12s230 26 470-22v404H0Z"/>
  <path filter="url(#w2)" fill="#6f8d5f" d="M0 552c150-34 250 28 390 2s250 22 410-16v262H0Z"/>
  <g fill="#eef3e4" opacity=".55">
    <ellipse cx="300" cy="700" rx="150" ry="16"/><ellipse cx="560" cy="742" rx="110" ry="12"/>
  </g>
  <g fill="#fffdf7" opacity=".7">
    <circle cx="120" cy="612" r="6"/><circle cx="176" cy="638" r="4"/><circle cx="660" cy="620" r="6"/>
    <circle cx="712" cy="648" r="4"/><circle cx="420" cy="660" r="5"/>
  </g>
  <text x="400" y="770" text-anchor="middle" font-family="Georgia, serif" font-size="28" fill="#fffdf7" opacity=".9">rooftops, late june</text>
</svg>
