<svg xmlns="http://www.w3.org/2000/svg" viewBox="0 0 800 800" role="img" aria-label="Placeholder: AFTER RAIN">
  <defs>
    <linearGradient id="s6" x1="0" y1="0" x2="0" y2="1">
      <stop offset="0%" stop-color="#04100e"/><stop offset="70%" stop-color="#142c26"/>
    </linearGradient>
    <radialGradient id="r6"><stop offset="0%" stop-color="#f7c777" stop-opacity=".5"/>
      <stop offset="100%" stop-color="#f7c777" stop-opacity="0"/></radialGradient>
  </defs>
  <rect width="800" height="800" fill="url(#s6)"/>
  <g fill="#ddf0e7" opacity=".45">
    <circle cx="320" cy="90" r="1.8"/><circle cx="480" cy="150" r="1.4"/>
    <circle cx="720" cy="70" r="1.6"/><circle cx="200" cy="230" r="1.3"/>
    <circle cx="660" cy="260" r="1.5"/>
  </g>
  <circle cx="610" cy="330" r="190" fill="url(#r6)"/>
  <path fill="#0c2320" d="M0 470c120-46 210 22 330-12s230 26 470-22v364H0Z"/>
  <g fill="#04100e">
    <path d="M60 500q46-130 92 0z"/><path d="M240 520q38-108 76 0z"/>
    <path d="M560 505q44-124 88 0z"/><path d="M700 525q34-96 68 0z"/>
  </g>
  <rect y="560" width="800" height="240" fill="#04100e"/>
  <g fill="#f7c777" opacity=".28">
    <rect x="600" y="560" width="30" height="240"/>
    <rect x="610" y="560" width="16" height="240"/>
  </g>
  <g stroke="#f7c777" stroke-opacity=".12" stroke-width="1">
    <path d="M0 610h800"/><path d="M0 668h800"/><path d="M0 740h800"/>
  </g>
  <text x="400" y="775" text-anchor="middle" font-family="ui-monospace, monospace" font-size="22"
        fill="#5d8176" letter-spacing="4">AFTER RAIN</text>
</svg>
